PathFileType	4	(X/Y/Z)	C:/Users/opensim2020/Desktop/walking_exp_matlab/subject03_walking11_straight_01.trc	
DataRate	CameraRate	NumFrames	NumMarkers	Units	OrigDataRate	OrigDataStartFrame	OrigNumFrames	
100.00	100.00	5	46	mm	100.00	974	454	
Frame#	Time	LFHD			RFHD			LBHD			RBHD			C7			T10			CLAV			STRN			RBAK			LSHO			LUPA			LELB			LFRM			LWRA			LWRB			LFIN			RSHO			RUPA			RELB			RFRM			RWRA			RWRB			RFIN			LASI			RASI			LPSI			RPSI			LTHI			LKNE			LTIB			LANK			LHEE			LTOE			RTHI			RKNE			RTIB			RANK			RHEE			RTOE			*39			*40			*41			*42			*43			*44			*45			
		X1	Y1	Z1	X2	Y2	Z2	X3	Y3	Z3	X4	Y4	Z4	X5	Y5	Z5	X6	Y6	Z6	X7	Y7	Z7	X8	Y8	Z8	X9	Y9	Z9	X10	Y10	Z10	X11	Y11	Z11	X12	Y12	Z12	X13	Y13	Z13	X14	Y14	Z14	X15	Y15	Z15	X16	Y16	Z16	X17	Y17	Z17	X18	Y18	Z18	X19	Y19	Z19	X20	Y20	Z20	X21	Y21	Z21	X22	Y22	Z22	X23	Y23	Z23	X24	Y24	Z24	X25	Y25	Z25	X26	Y26	Z26	X27	Y27	Z27	X28	Y28	Z28	X29	Y29	Z29	X30	Y30	Z30	X31	Y31	Z31	X32	Y32	Z32	X33	Y33	Z33	X34	Y34	Z34	X35	Y35	Z35	X36	Y36	Z36	X37	Y37	Z37	X38	Y38	Z38	X39	Y39	Z39	X40	Y40	Z40	X41	Y41	Z41	X42	Y42	Z42	X43	Y43	Z43	X44	Y44	Z44	X45	Y45	Z45	X46	Y46	Z46	

341	3.400	1402.10559	744.75922	1617.85132	1534.92285	749.90680	1622.05237	1411.96631	613.24951	1586.25671	1542.35767	623.32373	1589.78406	1475.69031	575.12317	1425.48157	1478.82776	532.37726	1111.56128	1462.36511	692.63501	1343.85693	1455.15881	731.99048	1178.87378	1580.07751	526.33191	1251.99084	1312.60571	631.30780	1382.23291	1244.07361	597.31335	1185.35193	1230.68152	594.53015	1062.40894	1226.50330	617.88342	934.38550	1253.76294	640.09503	816.12817	1206.95422	609.32611	821.98273	1213.14954	626.34222	739.03748	1625.40356	665.82861	1370.55774	1701.87817	708.05780	1155.84094	1712.96106	749.40753	1051.03491	1711.77588	797.51251	922.54700	1670.34619	840.99664	835.35315	1720.25244	821.85846	826.04297	1707.50110	860.00500	763.30554	1350.59741	691.40906	946.67365	1587.08936	704.17480	944.54999	1405.76855	531.09967	964.45996	1555.23108	541.15723	978.05652	1298.58521	712.95514	652.45197	1326.86841	772.77808	483.54849	1334.36169	697.62274	299.17181	1379.82495	645.32880	98.56352	1422.18445	600.84595	69.41093	1390.56042	782.35858	44.52454	1622.32690	634.60443	651.29028	1584.31348	633.94513	471.35931	1585.10986	570.68536	289.94452	1531.66699	523.98517	79.17219	1481.31421	478.25781	50.41571	1512.75110	664.32684	36.20050	1459.52185	670.13727	1685.84705																		 
342	3.410	1401.75452	751.46600	1617.28149	1534.30957	756.80127	1621.70056	1411.58093	619.80438	1585.64063	1542.00366	630.25592	1589.36292	1475.53101	581.88049	1425.08984	1478.47852	538.71490	1111.22949	1462.16650	699.26929	1343.34143	1455.03857	738.11023	1178.22778	1580.04431	532.98444	1251.79578	1312.38037	637.71021	1381.74121	1243.74951	602.57526	1185.05054	1230.80969	598.88025	1061.92786	1226.88916	621.93768	933.88910	1254.28284	643.60321	815.50122	1207.55371	612.87885	821.42145	1213.41284	630.19287	738.58875	1625.07031	672.84564	1370.25403	1701.73499	715.92755	1155.93787	1712.74341	757.87323	1051.40735	1711.05444	807.18176	923.39368	1669.15344	851.39594	836.79913	1719.10522	832.57428	827.09772	1705.98340	871.41638	764.92572	1350.76392	698.00702	946.14722	1587.34839	710.14178	944.22034	1406.11768	539.84918	963.40881	1554.93555	547.17993	977.72736	1298.95520	719.37390	651.77478	1328.25500	779.82971	483.24994	1335.19861	712.96735	296.05954	1380.16406	670.91278	92.81361	1422.14905	628.22784	61.54774	1391.80920	810.49988	44.83329	1622.41467	639.02979	651.12488	1584.57251	636.88605	471.25046	1585.25415	572.24139	290.23846	1531.69312	524.22284	79.63800	1481.08972	478.23865	51.29364	1512.82568	664.45520	36.15939	1458.66968	676.96167	1684.94116																		 
343	3.420	1401.07813	758.13794	1616.75354	1533.59888	763.69556	1621.32605	1411.17676	626.53168	1585.00244	1541.55164	637.21857	1588.95691	1475.35913	588.65546	1424.81812	1478.03564	545.16168	1110.67517	1461.90002	705.98120	1342.83337	1454.88708	744.10950	1177.57288	1579.90918	539.68207	1251.58350	1312.05310	644.27448	1381.20740	1244.11792	607.32819	1184.52307	1230.96960	603.51929	1061.38464	1227.23962	626.13483	933.31445	1254.95728	647.24658	815.03729	1208.07910	616.59253	820.92773	1214.06128	633.74054	738.10785	1624.75964	679.78973	1369.85425	1701.56714	723.63586	1155.90625	1712.40979	766.17712	1051.66992	1710.27271	816.66504	924.14240	1667.88306	861.55524	838.17944	1717.84595	843.02344	828.07190	1704.33203	882.51544	766.39941	1350.82568	704.78015	945.46582	1587.55701	716.13843	943.86505	1405.16809	544.01868	963.45837	1554.58606	553.25696	977.38483	1299.39636	725.16229	650.80670	1329.84558	786.50073	482.69858	1335.99707	728.20111	293.24368	1380.32385	696.31842	87.83172	1422.49573	654.81299	54.97339	1393.10193	838.09607	45.38203	1622.50049	643.46271	650.98419	1584.89258	639.84235	471.18463	1585.25134	573.54077	290.56583	1531.77625	524.39099	80.10107	1481.08484	478.38760	52.06048	1512.84424	664.48590	35.99693	1457.97522	683.68243	1684.36511																		 
344	3.430	1400.34021	764.82874	1616.15344	1532.85168	770.61084	1620.92761	1410.74158	633.20166	1584.34937	1541.09509	644.06158	1588.47363	1475.09009	595.39984	1424.29114	1477.53259	551.30450	1110.35974	1461.53564	712.68994	1342.24536	1454.71350	750.56970	1176.89832	1579.68811	546.40527	1251.25940	1311.74548	650.85065	1380.65002	1243.93909	612.79785	1184.07690	1231.09021	608.48419	1060.96655	1227.58997	630.40118	932.76965	1255.44373	651.12360	814.47833	1208.69556	620.37958	820.33459	1214.76611	637.18085	737.59375	1624.33374	686.70367	1369.40442	1701.30627	731.19489	1155.78613	1712.10486	774.29248	1051.80457	1709.38708	825.91095	924.73578	1666.47095	871.41876	839.39197	1716.52173	853.27191	828.92328	1702.58276	893.38171	767.77466	1350.92139	711.44183	944.75977	1587.67676	722.17444	943.50342	1404.75708	550.51880	962.89734	1554.22205	559.42487	977.02350	1299.80103	730.53259	649.57452	1331.43982	792.86090	482.04181	1336.84998	743.10425	290.85303	1380.24231	721.36633	83.37187	1422.34326	681.35931	49.39717	1394.19507	865.18524	46.15648	1622.62500	647.96350	650.79974	1585.16577	642.84088	471.05560	1585.62695	575.35162	290.83441	1531.98804	524.73175	80.68719	1481.17285	478.54831	52.96119	1512.92859	664.61365	35.82768	1456.50537	690.31036	1683.49731																		 
345	3.440	1399.61670	771.58453	1615.55200	1532.13428	777.51599	1620.49878	1410.23145	639.96808	1583.67529	1540.51855	651.00708	1587.95374	1474.60925	602.23859	1423.83008	1476.96643	557.70819	1110.01245	1461.15417	719.41870	1341.65515	1454.44470	757.03491	1176.25403	1579.35938	553.06573	1250.91406	1311.25916	657.63336	1380.13794	1243.86157	618.50037	1183.65747	1231.13477	613.46417	1060.42383	1227.92212	634.79187	932.14301	1256.04211	655.23541	813.82019	1209.26440	624.35986	819.70355	1215.55493	640.90460	736.93542	1623.86609	693.55188	1368.88049	1701.02356	738.69745	1155.57715	1711.73877	782.23053	1051.82043	1708.44055	834.92548	925.22931	1665.01636	880.99347	840.43604	1715.09424	863.19287	829.63312	1700.74316	903.86761	768.99567	1350.89941	718.23022	943.90894	1587.73901	728.24231	943.15155	1404.31604	557.43103	962.13727	1553.83643	565.60303	976.61975	1300.39099	735.47772	648.10376	1333.33972	799.05664	481.21625	1337.76782	757.51068	288.83023	1380.07617	746.17114	80.29671	1421.68311	707.73206	44.70084	1395.05017	891.47858	47.00816	1622.75488	652.50922	650.68634	1585.46448	645.92242	471.04654	1586.05200	577.18512	291.26288	1532.24280	525.10883	81.36610	1481.26038	478.72607	53.85818	1513.19983	664.72656	35.96252	1456.80408	697.05463	1683.55615																		 
